<?xml version="1.0" encoding="UTF-8"?>
<svg width="752px" height="1000px" viewBox="0 0 752 1000" version="1.1" xmlns="http://www.w3.org/2000/svg" xmlns:xlink="http://www.w3.org/1999/xlink">
    <title>Full</title>
    <g id="Page-1" stroke="none" stroke-width="1" fill="none" fill-rule="evenodd">
        <g id="Artboard" transform="translate(-124.000000, 0.000000)" fill-rule="nonzero">
            <g id="Full" transform="translate(124.000000, 0.000000)">
                <path d="M752,375.972977 C752,547.119009 522.875,851.813776 422.4125,977.52974 C398.325,1007.49009 353.675,1007.49009 329.5875,977.52974 C229.125,851.813776 0,547.119009 0,375.972977 C0,168.404563 168.416667,0 376,0 C583.583333,0 752,168.404563 752,375.972977 Z" id="Path" fill="#7FB069"></path>
                <g id="cactus-svgrepo-com" transform="translate(174.000000, 141.000000)" fill="#FFFFFF">
                    <path d="M364.264,43.724 C342.1,43.724 324.067,61.756 324.067,83.921 L324.067,162.643 C324.067,171.505 316.857,178.715 307.995,178.715 L267.38,178.715 L267.38,85.83 C267.379,38.503 228.876,0 181.55,0 C134.224,0 95.72,38.503 95.72,85.83 L95.72,306.251 L88.1,306.251 C80.642,306.251 74.576,300.185 74.576,292.727 L74.576,221.639 C74.576,201.078 57.849,184.351 37.288,184.351 C16.726,184.351 0,201.079 0,221.639 L0,331.677 C0,358.778 22.049,380.827 49.15,380.827 L95.721,380.827 L95.721,491.602 L59.832,491.602 C54.199,491.602 49.633,496.168 49.633,501.801 C49.633,507.434 54.199,512 59.832,512 L105.92,512 L257.18,512 L279.634,512 C285.266,512 289.833,507.434 289.833,501.801 C289.833,496.168 285.266,491.602 279.634,491.602 L267.38,491.602 L267.38,259.109 L351.129,259.109 C380.536,259.109 404.462,235.184 404.462,205.776 L404.462,83.921 C404.462,61.756 386.429,43.724 364.264,43.724 Z M95.72,360.43 L49.149,360.43 C33.295,360.43 20.397,347.532 20.397,331.678 L20.397,221.639 C20.397,212.326 27.974,204.749 37.287,204.749 C46.6,204.749 54.177,212.326 54.177,221.639 L54.177,292.727 C54.177,311.431 69.394,326.65 88.1,326.65 L95.72,326.65 L95.72,360.43 Z M246.981,491.602 L116.118,491.602 L116.118,85.83 C116.118,49.75 145.47,20.398 181.55,20.398 C217.629,20.398 246.981,49.75 246.981,85.83 L246.981,178.714 L229.274,178.714 C207.11,178.714 189.077,196.746 189.077,218.911 C189.077,241.075 207.11,259.108 229.274,259.108 L246.981,259.108 L246.981,491.602 Z M384.064,205.776 L384.064,205.776 C384.062,223.936 369.289,238.71 351.128,238.71 L229.274,238.71 C218.357,238.71 209.475,229.829 209.475,218.911 C209.475,207.993 218.356,199.112 229.274,199.112 L307.996,199.112 C328.106,199.112 344.466,182.751 344.466,162.642 L344.466,83.921 C344.466,73.004 353.347,64.122 364.265,64.122 C375.182,64.122 384.064,73.003 384.064,83.921 L384.064,205.776 L384.064,205.776 Z" id="Shape"></path>
                    <path d="M148.461,289.525 C142.828,289.525 138.262,294.091 138.262,299.724 L138.262,442.714 C138.262,448.347 142.828,452.913 148.461,452.913 C154.094,452.913 158.66,448.347 158.66,442.714 L158.66,299.724 C158.66,294.091 154.094,289.525 148.461,289.525 Z" id="Path"></path>
                    <path d="M148.461,225.711 C142.828,225.711 138.262,230.277 138.262,235.91 L138.262,253.636 C138.262,259.269 142.828,263.835 148.461,263.835 C154.094,263.835 158.66,259.269 158.66,253.636 L158.66,235.91 C158.66,230.278 154.094,225.711 148.461,225.711 Z" id="Path"></path>
                    <path d="M181.55,94.538 C175.917,94.538 171.351,99.104 171.351,104.737 L171.351,154.37 C171.351,160.003 175.917,164.569 181.55,164.569 C187.183,164.569 191.749,160.003 191.749,154.37 L191.749,104.737 C191.749,99.105 187.183,94.538 181.55,94.538 Z" id="Path"></path>
                    <path d="M181.55,41.361 C175.917,41.361 171.351,45.927 171.351,51.56 L171.351,65.741 C171.351,71.373 175.917,75.94 181.55,75.94 C187.183,75.94 191.749,71.374 191.749,65.741 L191.749,51.56 C191.749,45.927 187.183,41.361 181.55,41.361 Z" id="Path"></path>
                    <path d="M224.093,388.791 C218.461,388.791 213.894,393.357 213.894,398.99 L213.894,413.171 C213.894,418.804 218.461,423.37 224.093,423.37 C229.725,423.37 234.292,418.804 234.292,413.171 L234.292,398.99 C234.292,393.357 229.725,388.791 224.093,388.791 Z" id="Path"></path>
                    <path d="M335.176,491.602 L319.813,491.602 C314.181,491.602 309.614,496.168 309.614,501.801 C309.614,507.434 314.181,512 319.813,512 L335.176,512 C340.808,512 345.375,507.434 345.375,501.801 C345.375,496.168 340.808,491.602 335.176,491.602 Z" id="Path"></path>
                </g>
            </g>
        </g>
    </g>
</svg>