<?xml version="1.0" encoding="UTF-8"?>
<svg width="500px" height="101px" viewBox="0 0 650 101" version="1.1" xmlns="http://www.w3.org/2000/svg" xmlns:xlink="http://www.w3.org/1999/xlink">
    <title>Path</title>
    <g id="Version1" stroke="none" stroke-width="1" fill="none" fill-rule="evenodd">
        <g id="Home1" transform="translate(-36.000000, -462.000000)" stroke="#7FB069" stroke-width="20">
            <path d="M104.080981,484.842617 C92.0622427,493.756291 78.8110531,501.437808 68.0247683,511.583638 C60.2075067,518.936736 38.935972,531.965304 48.8075566,536.834087 C60.3052951,542.504909 71.1212718,524.375451 82.6820783,518.812799 C92.6264611,514.027912 102.585049,509.047996 113.255242,505.824132 C134.384177,499.440291 155.895623,493.888219 177.756874,490.087151 C179.728334,489.744369 176.565005,493.73593 175.174005,495.058169 C168.555613,501.349393 161.662908,507.488983 153.987821,512.681224 C141.480775,521.142316 126.971165,527.008678 114.81753,535.889684 C113.232386,537.047994 118.840232,537.424629 120.797462,536.934364 C150.976877,529.374747 180.946289,521.061566 210.589739,511.899781 C223.227898,507.993755 234.94701,501.880298 247.508311,497.772339 C255.304518,495.222723 263.45978,493.686893 271.524606,491.972075 C272.583817,491.746856 273.994586,491.291344 274.787076,491.972075 C275.421601,492.517118 274.91335,493.799041 274.243521,494.307564 L265.24557,504.172397 C256.028359,511.169956 244.975142,516.027495 236.032552,523.316719 C235.049356,524.118135 238.03376,525.221234 239.34948,525.280643 C242.682291,525.431129 246.083944,524.883031 249.247734,523.913422 C303.904528,507.162727 357.493281,487.454699 412.660503,472.165924 C414.914915,471.541148 413.311632,476.556534 412.660503,478.626005 C411.67476,481.758977 410.063231,484.798728 407.875693,487.373413 C403.540023,492.476401 398.740159,497.331403 393.280783,501.435512 C381.731337,510.117858 369.368044,517.868529 357.032612,525.594917 C345.483966,532.828495 333.72473,539.801072 321.661348,546.294865 C319.739698,547.3293 324.555201,543.086276 326.472738,542.045483 C331.342781,539.40214 336.371317,536.806682 341.809296,535.359042 C378.83109,525.503496 416.598284,518.093186 453.608318,508.20081 C463.792652,505.478649 473.527769,501.474536 483.234822,497.557552 C494.534944,492.997734 505.193929,487.158247 516.583797,482.788983 C521.284163,480.985877 526.292563,478.427651 531.335828,479.105539 C533.383361,479.380757 530.536619,482.892892 529.487174,484.523383 C527.385953,487.787992 524.979865,490.960484 522.007158,493.599226 C495.184182,517.408812 482.074587,527.052983 450.995605,545.028712 C445.814904,548.025171 429.01755,554.962853 434.600798,552.648055 C529.553673,513.280874 430.598813,547.114676 606.903823,495.498742 C608.984011,494.889736 613.071972,492.297458 613.319849,494.281183 C616.649736,520.929826 544.806299,550.873354 600.61881,522.858463 C606.624748,519.843804 612.988694,517.419064 619.429889,515.283328 C626.798433,512.840107 634.331564,510.768912 641.966821,509.148519 C655.958286,506.17918 670.151315,504.068334 684.243562,501.528242" id="Path"></path>
        </g>
    </g>
</svg>