<?xml version="1.0" encoding="UTF-8"?>
<svg width="1079px" height="686px" viewBox="0 0 1079 686" version="1.1" xmlns="http://www.w3.org/2000/svg" xmlns:xlink="http://www.w3.org/1999/xlink">
    <title>US Map</title>
    <g id="Version1" stroke="none" stroke-width="1" fill="none" fill-rule="evenodd">
        <g id="Home1" transform="translate(-798.000000, -259.000000)" fill="#666A86" fill-rule="nonzero" stroke="#666A86" stroke-width="3">
            <g id="US-Map" transform="translate(1337.500000, 602.000000) scale(-1, 1) rotate(-180.000000) translate(-1337.500000, -602.000000) translate(800.000000, 261.000000)">
                <path d="M91.6064243,681.052725 C91.0903318,679.761275 91.6924397,661.33658 92.3805631,654.965424 L92.8966556,650.660588 L91.6924397,655.740294 C90.4022084,661.07829 89.4560387,662.283644 86.1014373,662.283644 C84.8972214,662.283644 83.3489438,662.800224 82.6608204,663.488997 C81.8866816,664.177771 80.2523886,664.952641 79.0481727,665.124835 C77.8439568,665.383125 72.6830315,668.310413 67.694137,671.754281 C61.1569649,676.145213 58.1464252,677.781051 56.9422093,677.436664 C54.7058083,676.661793 52.8994844,672.270861 52.9854999,667.879929 C53.0715153,665.985802 53.1575307,662.11145 53.1575307,659.270259 C53.2435461,650.402298 53.2435461,646.872333 53.3295616,644.892109 C53.415577,643.772852 53.2435461,639.726307 52.9854999,635.851955 C52.6414382,629.825185 52.813469,628.619832 54.0176849,627.931058 C54.7918237,627.500574 55.3079163,626.983994 55.04987,626.811801 C54.7918237,626.639607 53.5876078,625.77864 52.2973765,625.00377 C50.6630835,623.970609 49.8889447,622.765256 49.8889447,621.301612 C49.8889447,618.288227 47.6525437,609.764653 45.1580965,603.393497 C44.039896,600.466209 41.5454488,593.922859 39.6531095,588.67096 C36.3845234,579.630806 28.6431355,560.689531 26.4927499,556.642985 C25.9766574,555.609825 24.0843181,553.199117 22.2779943,551.30499 C20.385655,549.410862 18.9233928,547.000154 18.9233928,545.880897 C18.9233928,544.847737 17.7191769,542.695319 16.1708993,541.145578 C13.5044212,538.390484 13.4184058,538.132194 14.27856,534.085648 C14.7946526,531.761037 14.880668,529.178136 14.5366063,528.317169 C14.1925446,527.370105 13.8484829,521.171143 13.8484829,514.4556 C13.7624675,502.402061 13.7624675,502.143771 11.1820048,498.097225 C9.71974267,495.858711 8.60154219,493.706293 8.60154219,493.361907 C8.60154219,492.931423 6.70920291,489.745845 4.30077109,486.21588 C0.344061687,480.275207 0,479.41424 0,474.592825 C0,471.235053 0.860154219,466.758024 2.40843181,461.764415 C4.81686362,454.532292 4.81686362,454.101809 3.44061687,452.121584 C1.11820048,448.936006 0.172030844,444.545074 0.172030844,437.829531 C0.172030844,431.888859 0.344061687,431.372278 4.38678651,425.345509 C8.34349592,419.404836 8.60154219,418.716063 8.60154219,413.464163 C8.60154219,408.298361 8.85958845,407.523491 11.8701282,403.821332 C13.5904367,401.582818 15.5687914,399.774787 16.2569147,399.688691 C17.0310535,399.688691 16.514961,398.827723 15.0526988,397.536273 C12.8162979,395.383855 12.7302824,395.039468 13.0743441,388.496119 L13.3323904,381.694479 L18.0632386,376.873063 L22.7080714,372.137745 L20.8157321,370.15752 C18.751362,368.005103 16.3429302,361.80614 16.3429302,358.706659 C16.3429302,357.501305 17.5471461,355.607177 19.2674545,354.057436 C20.9877629,352.507696 22.4500251,350.183085 22.7080714,348.547247 C23.3101793,345.275572 29.5032897,332.102776 30.793521,331.327906 C31.3096136,330.983519 31.4816444,329.433779 31.2235981,327.797941 C30.8795364,325.645523 31.2235981,324.267976 32.5138295,322.546042 C34.1481225,320.135334 34.1481225,320.049238 32.5998449,316.347079 C29.9333668,310.234213 30.3634439,308.253989 34.9222613,304.724024 C37.1586622,303.00209 40.3412329,301.280156 42.0615413,301.021866 C43.7818497,300.677479 47.7385591,299.127738 50.9211297,297.577997 C55.2219008,295.42558 56.8561938,294.048032 57.286271,292.498292 C58.0604098,289.39881 62.9632888,285.438362 67.0060136,284.749588 C71.0487385,284.060815 72.6830315,282.511074 71.9949081,279.842076 C71.2207693,277.086981 72.8550623,274.848467 75.5215404,274.848467 C78.2740339,274.848467 82.574805,270.715825 86.6175298,264.086379 C89.0259616,260.212027 89.3700233,258.748383 90.0581467,249.708229 C90.5742392,244.19804 91.348378,239.118334 91.950486,238.42956 C92.5525939,237.568593 96.2512571,236.793723 102.616398,236.191046 C118.787298,234.555209 138.65686,232.661081 139.947091,232.661081 C140.549199,232.661081 141.409354,231.800114 141.839431,230.680857 C142.269508,229.5616 144.84997,227.323085 147.688479,225.601151 C150.440973,223.965314 162.397116,216.4749 174.181229,208.984487 C186.051357,201.58017 200.587964,192.367823 206.609043,188.579568 L217.619017,181.777928 L243.595675,178.33406 C275.765442,174.029224 280.840352,173.598741 282.474645,174.890191 C283.162769,175.492868 283.936908,177.817479 284.280969,180.228187 C284.625031,182.552798 285.227139,184.446926 285.571201,184.446926 C288.065648,184.446926 316.02066,180.916961 316.622768,180.486477 C317.052845,180.228187 317.912999,178.764543 318.601123,177.300899 C319.203231,175.751159 325.826418,168.260745 333.137729,160.684235 C348.190428,145.186828 352.147137,139.160059 351.286983,133.649869 C350.59886,129.431131 353.179322,124.351425 357.996186,120.56317 C367.113821,113.24495 382.252535,103.343829 384.919013,102.913345 C387.327445,102.482862 388.273614,102.913345 391.5422,106.012827 C394.122663,108.337438 396.187033,111.436919 397.821326,115.139078 C399.971712,120.390977 400.315773,120.735363 402.896236,120.735363 C404.444514,120.735363 405.992791,121.07975 406.422868,121.510234 C406.938961,122.026814 409.089346,121.854621 412.013871,121.07975 C414.594333,120.390977 418.465027,119.874396 420.615413,119.874396 C425.17423,119.874396 425.948369,119.443913 427.324616,116.000045 C427.926724,114.622497 430.851248,111.350823 433.947803,108.854018 C438.592636,104.89357 439.624821,103.516022 440.743022,99.7277672 C443.065438,91.892967 448.054332,81.9057491 452.011042,77.3426237 C454.161427,74.9319159 455.881736,72.3490148 455.881736,71.6602411 C455.881736,69.3356301 460.010476,64.1698277 462.332893,63.5671508 C464.225232,63.0505705 464.483278,62.5339903 464.483278,59.2623155 C464.483278,57.2820912 465.171401,53.4938362 466.117571,50.910935 C468.095926,45.056359 473.428882,34.4664642 474.97716,33.0889169 C477.729653,30.8504025 495.878907,23.4460858 500.867801,22.5851188 C503.792326,21.9824418 507.921066,20.5187978 510.071452,19.1412505 C513.340038,17.1610263 514.630269,16.8166395 518.586978,17.0749296 C521.167441,17.247123 523.575873,17.8497999 524.00595,18.4524769 C525.382197,20.6909912 524.694073,24.6514397 522.543688,26.8899541 C521.167441,28.3535981 519.533148,32.0557564 518.070886,37.1354621 C516.006516,44.2814886 515.9205,45.4868425 516.86667,49.1890009 C517.382762,51.4275152 517.640809,53.9243197 517.382762,54.6991901 C517.038701,55.4740604 517.382762,56.9377044 518.156901,58.0569616 C518.93104,59.0901221 519.791194,61.7591199 520.049241,63.9976343 C520.479318,66.9249223 520.99541,68.2163729 522.199626,68.474663 C523.05978,68.7329531 524.608058,70.2826938 525.554228,71.9185312 C526.672428,73.8987555 528.220706,75.1041093 529.768983,75.3623995 C531.489292,75.7067863 532.521477,76.6538501 533.123585,78.3757842 C533.725693,80.0977183 534.757878,81.1308788 536.392171,81.4752656 C539.832788,82.3362326 541.037004,83.5415865 541.037004,86.038391 C541.037004,87.7603251 541.29505,87.9325185 542.499266,87.2437449 C544.391605,86.2105844 549.122453,88.1047119 560.218443,94.1314813 C567.099676,97.9197364 568.733969,99.211187 569.422093,101.449701 C569.938185,102.999442 571.658494,105.15186 573.292787,106.271117 C575.271141,107.562567 576.303326,108.940115 576.303326,110.317662 C576.303326,112.039596 576.647388,112.297886 578.539727,111.867403 C579.829959,111.695209 583.786668,112.21179 587.399316,113.072757 C591.011964,114.01982 598.065228,115.655658 603.054123,116.774915 L612.171757,118.841236 L619.397053,117.205399 C623.353762,116.344431 628.686718,115.139078 631.181166,114.536401 C636.600137,113.331047 638.492476,114.105917 638.922554,117.635882 C639.1806,119.616106 639.524662,119.7883 641.503016,119.357816 C642.793248,119.099526 644.943633,117.549785 646.233864,115.913948 C647.610111,114.278111 649.50245,112.98666 650.44862,112.98666 C651.39479,112.98666 653.545175,111.609113 655.093453,109.973275 C657.931962,106.959891 664.469134,103.516022 667.393658,103.516022 C668.253812,103.516022 669.80209,104.463086 670.920291,105.66844 C673.242707,108.079148 674.790984,108.423535 675.565123,106.529407 C676.597308,103.688216 683.306511,105.582343 684.682758,109.112308 L685.456897,111.178629 L689.757668,109.370598 C692.1661,108.337438 694.402501,106.7016 694.918593,105.582343 C696.29484,102.396765 698.703272,102.310668 704.38029,105.237956 C708.681061,107.390374 709.62723,108.251341 709.62723,109.973275 C709.62723,112.125693 709.4552,112.297886 697.757102,119.616106 L695.692732,120.907557 L697.757102,123.059975 C698.789287,124.265328 700.767642,125.728972 702.143889,126.417746 C704.810367,127.88139 705.240444,130.894775 703.262089,134.596933 C702.143889,136.835447 702.143889,136.921544 705.326459,138.385188 C707.992937,139.590542 709.885277,139.762735 714.186048,139.332252 C718.056742,138.901768 719.949081,138.987865 720.379158,139.676639 C720.72322,140.193219 721.497359,140.451509 722.099467,140.193219 C722.701574,140.021026 723.90579,140.279316 724.85196,140.968089 C726.228207,142.00125 726.658284,141.915153 728.292577,140.365412 C729.238747,139.418349 731.561163,138.471285 733.453502,138.212995 C736.205996,137.868608 737.06615,138.126898 738.786458,140.021026 C740.07669,141.398573 741.796998,142.25954 743.25926,142.25954 C744.463476,142.25954 746.011754,142.77612 746.527846,143.464894 C747.474016,144.584151 758.139928,144.842441 761.236483,143.809281 C770.784195,140.623703 775.256997,139.504445 777.149337,139.848832 C778.869645,140.193219 779.299722,140.021026 778.869645,139.073962 C778.611599,138.299091 779.557768,136.663254 781.364092,135.027417 C782.998385,133.563773 784.460647,131.411355 784.632678,130.206001 C785.062755,126.589939 788.417357,127.020423 797.879053,131.927935 C802.609901,134.42474 807.34075,137.524221 808.544965,138.901768 C813.275814,144.153667 819.812986,141.570766 830.908975,130.206001 C835.639823,125.384586 839.166456,122.457298 840.800749,122.112911 C844.757458,121.165847 848.542137,114.794691 848.456121,109.112308 C848.370106,106.7016 847.940029,103.860409 847.337921,102.913345 C845.703628,99.8138639 846.133705,92.4956439 848.11206,89.7405493 C849.058229,88.3630021 850.520491,87.0715515 851.380646,86.8132613 C852.326815,86.4688745 852.842908,85.3496173 852.928923,83.3693931 C852.928923,81.2169755 853.789077,79.4089446 855.939463,77.0843336 C857.573756,75.1902061 860.154219,71.9185312 861.616481,69.6800169 C863.680851,66.6666322 864.971082,65.6334717 866.605375,65.6334717 C867.981622,65.6334717 868.755761,65.1168915 868.755761,64.3420211 C868.755761,63.5671508 870.476069,61.156443 872.540439,58.9179286 C876.84121,54.1826098 878.217457,51.8579988 878.217457,49.1029042 C878.217457,46.7782931 879.679719,44.9702623 881.572059,44.9702623 C884.496583,44.9702623 890.173601,41.2681039 892.754063,37.5659456 C894.302341,35.4135279 896.538742,33.347207 897.570927,32.9167235 C898.689128,32.4862399 899.721313,31.2808861 899.893344,30.1616289 C900.065374,29.0423717 900.839513,28.0953079 901.785683,27.9231145 C904.882238,27.3204376 912.967688,30.419919 916.838382,33.6915938 L920.62306,36.9632686 L919.762906,41.3542006 C918.988767,45.4007458 919.074783,45.9173261 921.053137,48.5002272 C923.117507,51.0831284 923.203523,51.5136119 922.257353,55.9045439 C921.56923,59.4345089 921.56923,61.6730232 922.257353,64.7725046 C923.117507,68.474663 923.031492,69.4217268 921.225168,73.5543686 C920.192983,76.0511731 917.526505,80.5282018 915.462135,83.4554898 C913.397765,86.3827778 910.731287,91.6346769 909.527071,95.1646418 C907.978793,99.7277672 906.774577,101.880185 905.312315,102.655055 C902.903883,103.946506 901.785683,107.906954 902.645837,112.814467 C903.075914,115.741755 902.645837,116.688818 899.033189,121.768524 C896.796788,124.954102 893.786249,128.053583 892.237971,128.828454 C890.689693,129.603324 889.399462,130.808678 889.399462,131.497452 C889.399462,132.272322 887.249076,135.4579 884.668614,138.557382 C880.281827,143.895377 879.937766,144.670248 880.023781,148.458503 C880.195812,151.644081 879.765735,153.107725 878.389488,154.571369 C877.357303,155.690626 876.239102,157.843044 875.981056,159.478881 C875.636995,161.114719 874.862856,163.267136 874.260748,164.2142 C872.454424,167.141488 870.992162,182.638895 872.196378,187.115924 C873.314578,191.076372 876.583164,198.050205 879.077611,201.666267 C879.85175,202.871621 880.79792,204.937942 881.141982,206.315489 C882.260182,210.964711 886.732984,216.130514 894.904449,222.24338 C901.011544,226.806505 903.247945,229.045019 903.936068,231.197437 C904.538176,232.833275 905.656377,234.813499 906.602546,235.674466 C907.462701,236.449336 909.183009,239.634914 910.387225,242.648299 C914.860027,253.840871 918.644705,257.801319 925.69797,258.83448 C930.600849,259.523253 934.385528,263.397605 935.417713,268.477311 C936.535913,274.676274 944.793394,283.974718 951.330566,286.557619 C953.480951,287.418586 956.491491,289.054423 958.039769,290.173681 C960.362185,291.981711 960.792262,292.756582 960.792262,296.028257 C960.792262,298.869448 960.362185,299.988705 959.071954,300.677479 C958.125784,301.194059 956.921568,301.366252 956.491491,301.107962 C955.975399,300.849672 955.631337,301.538446 955.631337,302.7438 C955.631337,304.465734 956.061414,304.982314 957.437661,304.982314 C960.190154,304.982314 964.748972,308.081795 966.727326,311.35347 C969.221774,315.313919 969.221774,323.234816 966.813342,325.645523 C965.437095,327.023071 964.662956,327.195264 962.942648,326.506491 C958.813907,324.95675 957.26563,326.2482 961.136324,328.056231 C964.146864,329.433779 964.834987,333.480324 962.684601,337.526869 C961.738432,339.3349 960.706247,342.003898 960.4482,343.553638 C959.588046,347.1697 955.459306,350.613568 951.760643,350.613568 C949.610257,350.613568 948.836119,351.044052 948.406041,352.507696 C948.147995,353.626953 948.320026,354.832307 948.750103,355.26279 C950.040334,356.554241 949.782288,360.256399 948.320026,362.150527 C947.631903,363.097591 947.029795,364.905621 947.029795,366.197072 C947.029795,369.813134 945.481517,373.257002 943.073085,375.237226 C941.438792,376.528677 941.008715,377.561837 941.352777,378.853288 C941.868869,380.403028 942.298946,380.489125 944.793394,379.714255 C946.857764,379.025481 947.803933,378.164514 948.406041,376.098193 C948.922134,374.290162 949.782288,373.343099 951.158535,373.170905 C952.878843,372.912615 953.13689,372.482131 952.620797,371.018487 C952.276735,369.985327 951.846658,366.799749 951.588612,363.958558 C951.24455,359.739819 951.416581,358.362272 952.792828,356.726434 C953.997044,355.26279 954.943213,354.832307 956.233445,355.26279 C958.727892,356.037661 962.168509,363.011494 963.888817,370.588004 C964.662956,374.031872 966.039203,378.078417 966.899357,379.542061 C968.103573,381.608382 968.53365,383.932993 968.53365,388.840506 C968.53365,395.642145 967.845527,397.88066 964.834987,401.238431 C963.114679,403.132559 963.114679,403.132559 964.748972,403.132559 C967.41545,403.132559 971.458174,408.040071 975.328868,415.788775 L978.855501,422.934801 L978.855501,434.73005 L978.855501,446.611395 L984.704549,450.14136 C987.88712,452.121584 992.876015,454.790582 995.800539,456.082033 C1000.18733,457.97616 1001.64959,459.267611 1003.88599,462.625383 C1006.81051,467.188508 1006.89653,469.427022 1004.05802,470.632376 C1002.50974,471.407247 1003.02583,471.83773 1009.13293,474.851115 C1013.26167,476.831339 1016.27221,478.89766 1016.7883,480.103014 C1017.47643,481.566658 1018.25056,481.911045 1020.05689,481.652755 C1022.03524,481.394464 1022.98141,481.911045 1025.21781,484.838333 C1027.62624,487.851717 1028.31437,488.282201 1030.55077,487.765621 C1032.09905,487.507331 1033.56131,487.765621 1034.42146,488.454394 C1035.1956,489.143168 1037.432,490.434619 1039.41036,491.381682 C1042.76496,493.01752 1042.93699,493.361907 1043.19504,497.236258 C1043.5391,502.488157 1039.84043,509.892474 1036.91591,509.892474 C1033.56131,509.892474 1030.46475,506.706896 1030.46475,503.176931 L1030.46475,500.07745 L1027.79828,503.693511 C1026.33601,505.673735 1024.44367,507.309573 1023.66954,507.309573 C1021.2611,507.309573 1021.08907,508.084443 1022.55134,512.130988 C1023.84157,515.574857 1023.84157,516.091437 1022.46532,518.932628 C1020.83103,522.2904 1020.91704,522.979173 1024.09961,533.827358 C1025.30383,537.70171 1026.07797,542.006545 1025.99195,543.297996 C1025.73391,545.27822 1026.07797,545.622607 1028.14234,545.880897 C1029.51858,546.053091 1031.06686,547.086251 1031.841,548.291605 C1032.61514,549.410862 1033.99139,550.357926 1034.93756,550.357926 C1037.51802,550.357926 1041.3027,554.921051 1042.4209,559.39808 C1043.19504,562.583658 1043.88316,563.530722 1045.94753,564.219496 C1047.32378,564.736076 1049.38815,566.371913 1050.59236,567.921654 C1052.22666,570.160168 1053.25884,570.676748 1054.89313,570.418458 C1056.3554,570.074072 1057.55961,570.590652 1058.93586,572.226489 C1059.96804,573.431843 1062.29046,575.412067 1064.09678,576.703518 C1065.90311,577.908872 1068.22552,580.147386 1069.25771,581.697127 C1070.28989,583.246868 1071.92419,584.882705 1072.95637,585.313188 C1075.3648,586.346349 1075.70887,589.44583 1073.6445,592.287022 C1072.69833,593.664569 1071.66614,595.558696 1071.40809,596.591857 C1070.97802,597.969404 1069.60177,598.916468 1066.76326,599.691338 C1063.49468,600.638402 1062.46249,601.499369 1061.25827,603.82398 C1060.48414,605.459818 1058.50578,607.526139 1056.87149,608.387106 C1053.77493,610.10904 1053.51689,610.797813 1047.15175,631.719313 C1045.94753,636.024148 1044.31324,640.070693 1043.62511,640.845564 C1041.99082,642.825788 1032.61514,648.508171 1031.15288,648.508171 C1030.55077,648.508171 1027.79828,647.130623 1025.04578,645.494786 C1022.29329,643.858948 1019.88486,642.481401 1019.71283,642.481401 C1019.5408,642.481401 1019.28275,643.514562 1019.11072,644.892109 C1018.93869,646.786236 1018.33658,647.302817 1016.18619,647.47501 C1011.54136,647.905494 1010.0791,645.753076 1006.03637,632.0637 L1002.2517,619.493581 L1002.59576,607.784429 C1002.8538,596.936244 1002.76779,595.98918 1001.04748,593.750666 C999.929279,592.373118 999.15514,590.306797 999.241156,588.584863 C999.327171,586.862929 998.983109,585.915865 998.294986,586.088059 C996.746709,586.604639 991.671799,583.677351 989.779459,581.266643 C988.919305,579.975193 987.88712,577.736678 987.543058,576.100841 L986.94095,573.25965 L976.275038,570.848942 C963.286709,567.921654 942.729024,563.358528 937.998175,562.411465 C936.105836,561.980981 933.697404,561.378304 932.751235,560.947821 C929.912726,559.91466 915.54815,544.072866 914.860027,541.317772 C914.515965,540.026321 912.537611,536.92684 910.387225,534.516132 C906.172469,529.60862 905.484346,526.250848 908.236839,523.32356 C909.096994,522.2904 910.129179,520.654562 910.47324,519.535305 C911.935503,514.71389 894.904449,503.951801 889.657508,506.362509 C888.539308,506.879089 886.216891,507.309573 884.582598,507.309573 C881.400028,507.309573 866.175298,503.951801 865.057098,503.004738 C864.627021,502.660351 863.766866,500.163546 863.078743,497.494548 C861.788512,492.587036 861.788512,492.500939 864.024913,489.573651 C865.401159,487.765621 866.089283,486.043687 865.745221,485.010526 C864.971082,482.513722 853.703062,471.751633 849.660337,469.685312 C847.595967,468.652152 845.187535,466.930218 844.241366,465.724864 C841.918949,462.969769 835.381777,458.578837 829.790775,456.082033 C827.124297,454.962776 824.199772,452.724261 822.565479,450.744037 C820.243063,447.816749 819.468924,447.386266 817.318539,447.730652 C815.340184,447.988943 813.877922,447.472362 811.383474,445.492138 C808.45895,443.167527 807.770827,442.909237 804.244194,443.511914 C800.029439,444.200687 791.341881,447.730652 791.341881,448.763813 C791.341881,449.1082 792.11602,450.39965 793.06219,451.605004 C794.008359,452.810358 794.782498,454.876679 794.782498,456.340323 C794.782498,457.71787 795.556637,459.525901 796.502806,460.386868 C797.448976,461.247835 798.223115,462.797576 798.223115,463.916833 C798.223115,465.724864 798.825223,466.499734 801.921778,469.082635 C802.609901,469.685312 803.556071,472.956987 804.158179,476.486952 L805.276379,482.858108 L801.663732,493.620197 C799.599362,499.474773 797.362961,504.984962 796.674837,505.759832 C795.986714,506.534703 793.320236,507.740056 790.739773,508.256637 L785.92291,509.375894 L783.256431,506.362509 C781.794169,504.726672 779.557768,502.057674 778.267537,500.421836 C776.977306,498.785999 775.687074,497.752839 775.343013,498.097225 C774.998951,498.441612 776.031136,500.163546 777.751444,501.971577 C779.471753,503.693511 781.278077,506.018122 781.794169,507.051283 C783.170416,509.806377 782.91237,520.396272 781.364092,525.045494 C780.331907,528.231072 780.245892,529.522523 781.02003,531.416651 C781.622138,532.794198 781.794169,534.602229 781.536123,535.463196 C780.848,537.529517 774.654889,541.317772 769.838026,542.609222 C767.68764,543.125803 765.193193,544.331156 764.247023,545.192124 C763.300854,546.053091 760.462345,547.172348 758.053913,547.861121 C755.559466,548.463798 753.495096,549.238669 753.495096,549.583056 C753.495096,549.927442 756.333604,550.357926 759.774221,550.530119 C767.515609,550.960603 772.76255,553.285214 773.106612,556.470792 C773.450673,559.225887 772.76255,559.742467 763.816946,563.272432 C759.086098,565.166559 755.043373,566.19972 752.204864,566.285816 L747.904093,566.285816 L747.474016,569.643588 C746.871908,574.378907 745.065584,575.239874 739.904659,573.345746 C737.582242,572.570876 732.593348,571.279425 728.894685,570.590652 C723.991806,569.643588 720.981266,568.524331 717.798695,566.285816 C713.755971,563.530722 713.153863,563.358528 708.336999,563.875109 C704.55232,564.219496 702.315919,564.994366 700.165534,566.630203 C696.122809,569.729685 692.940239,571.021135 689.413606,571.021135 C685.198851,571.021135 685.456897,573.00136 690.27376,577.650582 C696.29484,583.419061 695.434686,585.915865 687.005174,586.862929 C682.360342,587.465606 682.01628,587.379509 680.123941,585.140995 C675.049031,579.028129 665.67335,571.537716 660.770471,569.729685 C658.53407,568.868718 655.781576,567.405074 654.57736,566.371913 C650.104558,562.497561 649.588466,562.239271 645.717772,562.841948 C642.621217,563.358528 641.933093,563.702915 642.277155,564.908269 C642.879263,567.23288 640.212785,569.299201 636.858183,569.299201 C635.22389,569.299201 631.611243,568.093847 628.772734,566.7163 C625.934225,565.252656 623.611808,564.305592 623.611808,564.477786 C623.611808,565.166559 629.804919,571.279425 634.10569,574.80939 C636.342091,576.617421 643.567386,581.61103 650.018543,586.001962 C659.996332,592.545312 661.888671,594.181149 661.888671,595.98918 C661.888671,599.346952 658.103993,600.724499 649.416435,600.552305 C644.427541,600.380112 641.24497,600.810596 639.352631,601.671563 C636.772168,602.79082 636.17006,602.79082 630.407027,600.724499 C623.611808,598.399888 622.149546,598.485984 617.934791,601.671563 C616.472528,602.79082 614.666205,603.737884 613.978081,603.737884 C613.203942,603.737884 611.311603,605.029334 609.67731,606.665172 C607.182863,609.161976 605.978647,609.678556 599.52749,610.62562 C594.624611,611.314394 591.27001,611.40049 589.20564,610.88391 C586.711193,610.195136 585.334946,610.36733 581.550267,612.089264 C579.05582,613.122424 576.217311,614.069488 575.357157,614.069488 C574.152941,614.069488 573.636848,615.274842 572.776694,620.612838 C571.830525,626.811801 571.572478,627.242284 568.906,628.361541 C563.314998,630.686152 559.616335,629.222508 558.928211,624.401093 C558.670165,622.334772 558.326103,622.248675 550.928777,621.645998 C538.800603,620.698935 519.361117,620.785031 480.826208,621.732095 C436.958343,622.937449 426.894539,623.712319 368.576083,630.341766 C341.825286,633.441247 339.760916,633.699537 319.117215,636.885115 C308.021226,638.520953 296.581175,640.328984 293.742666,640.759467 C290.904157,641.189951 285.915262,641.964821 282.560661,642.481401 C239.810996,648.852557 226.994698,651.091072 208.157321,655.395907 C196.115162,658.151002 183.126833,661.07829 179.342155,661.85316 C170.740612,663.747288 165.579687,664.866545 161.708993,665.727512 C160.0747,666.071899 154.99979,667.191156 150.526988,668.224316 C134.52812,671.754281 128.421025,673.304022 112.594187,677.694954 C96.0792262,682.258079 92.2945477,682.860756 91.6064243,681.052725 Z M114.830588,673.820602 C124.292285,671.237701 133.58195,668.740896 135.474289,668.310413 C140.893261,667.018962 185.191203,657.203938 209.017475,651.952039 C210.651768,651.607652 216.328786,650.316201 221.489711,649.110848 C226.736652,647.905494 242.993567,645.150399 257.616188,642.997981 C284.453,638.951436 296.925236,637.143405 306.903025,635.593665 C309.82755,635.077084 314.730429,634.388311 317.826984,633.871731 C331.24539,631.80541 335.202099,631.202733 337.610531,630.772249 C339.072793,630.513959 343.287549,629.997379 347.072227,629.566895 C350.856906,629.136412 367.887959,627.242284 384.919013,625.348157 C428.18477,620.526741 431.281325,620.268451 479.966054,618.71871 C519.447133,617.42726 547.746206,617.513356 557.982042,618.890904 C561.336643,619.407484 561.594689,619.579677 562.110782,622.765256 C562.626874,625.692544 562.970936,626.123027 565.121322,626.123027 C568.389908,626.123027 569.164046,624.917673 569.85217,618.374324 C570.712324,609.85075 570.798339,609.59246 574.066925,610.281233 C576.217311,610.62562 578.023635,610.195136 581.206206,608.645396 C584.990884,606.665172 585.765023,606.579075 589.549701,607.440042 C592.646257,608.128816 595.226719,608.128816 599.785537,607.353945 C605.118493,606.406881 606.236693,605.890301 608.387079,603.3074 C609.763326,601.585466 611.655665,600.294015 612.68785,600.294015 C613.63402,600.294015 615.268313,599.605242 616.214482,598.744275 C617.246667,597.883308 619.397053,596.76405 621.203377,596.161373 C623.95587,595.21431 624.90204,595.300406 630.148981,597.280631 C635.912014,599.433048 636.17006,599.433048 639.352631,598.055501 C642.019109,596.850147 643.395356,596.677954 647.43808,597.452824 C652.168929,598.313791 657.845946,597.452824 658.276024,595.816987 C658.362039,595.4726 653.803222,592.200925 648.126204,588.584863 C636.944199,581.35274 625.590163,572.226489 620.085176,565.94143 L616.644559,562.067078 L619.569084,561.033917 C622.407593,560.000757 623.009701,560.17295 629.116795,563.358528 C633.417567,565.68314 636.256076,566.630203 637.374276,566.285816 C639.266615,565.68314 639.610677,564.563882 638.23443,563.702915 C637.718338,563.444625 637.374276,562.067078 637.374276,560.689531 C637.374276,558.278823 637.460291,558.278823 640.212785,559.053693 C641.675047,559.484177 644.771602,559.65637 647.008003,559.39808 C650.706666,558.8815 651.222759,559.053693 654.319314,561.808788 C656.125638,563.444625 660.168363,565.94143 663.264918,567.405074 C666.447489,568.782621 670.576229,571.537716 672.468568,573.431843 C674.360907,575.325971 676.597308,577.134001 677.543478,577.392292 C678.403632,577.650582 679.865894,579.286419 680.726049,580.922256 C682.102295,583.505158 682.790419,583.935641 685.456897,583.935641 C690.617822,583.935641 691.305945,582.730287 687.779313,580.061289 C685.542912,578.339355 684.338696,576.531324 683.392527,573.345746 C682.704403,570.935039 682.102295,568.782621 682.102295,568.438234 C682.102295,568.179944 683.650573,568.093847 685.542912,568.266041 C689.585637,568.696524 694.918593,566.7163 699.30538,563.272432 C702.057873,561.120014 703.348105,560.775627 708.50903,560.603434 C714.100032,560.345144 714.874171,560.517337 719.174942,563.444625 C722.443528,565.597043 725.540083,566.802397 729.840854,567.49117 C733.195456,568.093847 737.324196,569.127008 739.13052,569.815781 C743.517307,571.451619 744.033399,571.365522 744.033399,568.868718 C744.033399,567.74946 744.463476,565.855333 744.979569,564.649979 C745.925738,562.669755 746.355815,562.583658 750.054479,563.014142 C753.323065,563.358528 755.559466,562.928045 761.580545,560.689531 C765.709285,559.13979 769.235918,557.503952 769.493964,557.159566 C770.268103,555.782018 763.5589,553.801794 758.139928,553.801794 C753.581111,553.801794 752.548926,553.543504 751.430725,551.907667 C750.226509,550.185732 749.968463,550.185732 748.592216,551.477183 C747.732062,552.165957 745.065584,553.11302 742.657152,553.371311 C737.926304,554.060084 734.657718,552.940827 731.647178,549.583056 C730.528978,548.377702 728.9807,547.775025 726.744299,547.775025 C723.90579,547.775025 723.217667,547.344541 722.099467,545.192124 C720.551189,542.178739 717.626665,541.662159 717.196587,544.417253 L716.938541,546.225284 L714.616125,544.417253 C711.777616,542.178739 711.347539,542.178739 711.347539,544.417253 C711.347539,547.430638 709.283169,545.708704 708.681061,542.092642 C708.336999,540.284611 707.046768,536.754646 705.842552,534.343939 C704.638336,531.847134 703.606151,529.264233 703.606151,528.575459 C703.606151,527.800589 701.713812,524.701108 699.391395,521.601626 C695.176639,516.091437 693.2843,511.356118 694.832578,510.409054 C695.34867,510.150764 696.380855,511.011731 697.24101,512.303182 C698.015148,513.594632 700.337565,516.177534 702.229904,518.071661 C704.208259,520.051885 706.960752,523.151367 708.50903,524.959398 C711.089493,528.231072 711.261523,528.317169 711.261523,526.250848 C711.347539,525.045494 709.971292,520.998949 708.336999,517.210694 C706.616691,513.422439 705.068413,508.17054 704.724351,505.587639 C704.466305,503.004738 703.43412,499.819159 702.573966,498.527709 C701.283734,496.633581 700.939673,494.911647 701.111704,490.348522 C701.197719,486.646363 700.853657,483.374689 699.993503,481.480561 C698.875303,478.725467 698.875303,477.692306 700.681626,468.996539 C701.799827,463.830736 702.659981,457.287387 702.659981,454.618389 C702.745997,450.485747 703.090058,449.538683 704.896382,448.075039 C706.100598,447.127975 707.648876,444.372881 708.423014,442.04827 C709.62723,438.260015 710.315354,437.485144 713.153863,436.365887 C716.336433,435.074437 716.59448,435.074437 720.207127,437.226854 C727.690469,441.78998 730.959055,449.452587 732.507333,465.638767 C733.023425,471.148956 732.851394,472.268214 730.442962,477.692306 C726.400238,486.99075 724.85196,493.964583 725.540083,499.991353 C725.884145,502.832544 726.400238,507.740056 726.658284,510.925635 C727.260392,516.608017 729.066716,520.310176 732.249286,522.2904 C733.367487,522.979173 733.969595,522.80698 734.829749,521.601626 C735.947949,520.051885 736.11998,520.051885 738.700443,521.946013 C741.022859,523.667947 741.452936,524.528914 741.452936,527.542299 C741.452936,530.211297 741.969029,531.588844 743.603322,533.138585 C745.065584,534.516132 745.581677,535.721486 745.237615,537.012936 C744.721522,539.165354 749.624402,545.966994 751.774787,545.966994 C754.527281,546.053091 761.580545,543.384093 762.61273,541.834352 C763.300854,540.887288 765.279208,540.026321 767.601625,539.768031 C771.386303,539.251451 778.439568,535.377099 778.439568,533.913455 C778.439568,533.569068 778.095506,532.966391 777.579414,532.708101 C776.289182,531.933231 776.547229,527.025719 778.009491,524.528914 C778.78363,523.151367 779.213707,519.793595 779.299722,515.144373 L779.299722,507.826153 L775.515043,504.382285 C772.246457,501.282803 771.81638,500.507933 772.246457,498.011129 C772.676535,494.997744 776.203167,492.242649 777.407383,494.05068 C780.331907,498.441612 786.525017,505.587639 787.299156,505.587639 C788.675403,505.587639 794.782498,503.865705 794.782498,503.521318 C794.782498,503.349124 796.330776,498.613806 798.30913,493.103616 C801.405685,484.063462 801.749747,482.427625 801.233655,478.12279 C800.545531,472.526504 799.513346,470.287989 797.793038,470.287989 C797.018899,470.287989 796.158745,468.824345 795.556637,466.413638 C795.040544,464.347317 794.094375,462.108802 793.406251,461.592222 C792.718128,461.075642 792.202035,459.525901 792.202035,458.148354 C792.202035,456.856903 791.083835,454.015712 789.621573,451.949391 C786.266971,446.869685 786.180956,444.458978 789.535557,444.458978 C790.911804,444.458978 793.836328,443.598011 796.158745,442.56485 C798.481161,441.53169 802.26584,440.412432 804.674272,440.154142 C808.544965,439.637562 809.233089,439.809755 812.845737,442.30656 C816.114323,444.717268 816.974477,444.975558 818.780801,444.200687 C820.415094,443.425817 821.017202,443.511914 821.963371,444.803364 C824.715865,448.677716 829.360698,453.068648 830.650929,453.068648 C832.285222,453.068648 843.897304,460.214675 846.047689,462.625383 C846.907844,463.658543 849.660337,465.724864 851.982754,467.274605 C854.391185,468.738249 859.036018,472.784794 862.39062,476.056469 C869.787946,483.374689 870.734115,486.129783 867.379514,490.520715 C865.401159,493.103616 865.315144,493.706293 866.175298,496.891871 C867.207483,500.766223 867.551545,500.938417 880.281827,503.607415 C885.958845,504.726672 886.388922,504.726672 888.625323,503.090834 L890.94774,501.3689 L897.570927,504.037898 C902.129744,505.932026 905.570361,508.084443 908.838947,511.097828 C913.139718,515.23047 913.48378,515.833147 913.48378,519.621402 C913.48378,521.859916 913.139718,523.667947 912.623626,523.667947 C912.193549,523.667947 911.161364,524.615011 910.387225,525.820365 C909.010978,527.972782 909.010978,528.058879 912.881672,532.191521 C915.032058,534.516132 917.268459,537.96 917.784551,539.854128 C918.55869,542.350932 920.967122,545.364317 926.300078,550.702313 L933.78342,558.192726 L960.878278,564.219496 C975.758946,567.49117 988.575243,570.418458 989.435398,570.676748 C990.639614,571.021135 990.89766,571.709909 990.553598,573.25965 C989.435398,577.478388 995.370462,583.935641 998.983109,582.558094 C1001.39154,581.61103 1003.11185,583.935641 1002.50974,587.121219 C1002.16568,589.273637 1002.50974,590.565088 1003.972,592.631408 C1005.95036,595.300406 1006.12239,597.108437 1005.69231,607.612235 C1005.34825,615.791422 1006.2084,622.076482 1009.30496,632.149796 C1012.3155,642.050918 1014.20784,645.666979 1015.92815,644.633819 C1016.27221,644.375529 1016.35822,643.514562 1016.10018,642.567498 C1015.84213,641.534337 1016.35822,640.501177 1017.56244,639.64021 C1019.36876,638.348759 1019.79884,638.520953 1024.87375,641.706531 C1027.79828,643.514562 1030.63678,645.064302 1031.06686,645.064302 C1031.49694,645.064302 1034.24943,643.600658 1037.00193,641.792628 C1041.73277,638.693146 1042.16285,638.090469 1043.28105,633.785634 C1043.96918,631.202733 1045.94753,624.401093 1047.75385,618.632614 C1050.85041,609.075879 1051.3665,608.042719 1054.11899,606.406881 C1055.75329,605.459818 1057.81766,603.221303 1058.5918,601.585466 C1059.79601,599.088661 1060.8282,598.313791 1063.83874,597.452824 C1066.76326,596.677954 1067.79545,595.903083 1068.74162,593.750666 C1069.34372,592.287022 1070.28989,590.737281 1070.80599,590.478991 C1072.18223,589.618024 1072.0102,587.379509 1070.54794,587.379509 C1069.85982,587.379509 1068.39755,586.088059 1067.36537,584.624415 C1066.24717,583.074674 1064.61288,581.180547 1063.58069,580.491773 C1062.63452,579.802999 1060.39812,577.908872 1058.67781,576.359131 C1056.3554,574.29281 1054.97915,573.604036 1053.77493,574.03452 C1052.4847,574.465004 1051.10846,573.604036 1048.26995,570.676748 C1046.20558,568.524331 1043.88316,566.7163 1043.19504,566.7163 C1042.24887,566.7163 1040.95864,564.649979 1039.49637,560.603434 C1038.20614,557.245662 1036.74388,554.404471 1036.14177,554.232278 C1035.62568,554.060084 1034.16342,553.715697 1032.87319,553.457407 C1031.58295,553.199117 1030.29272,552.165957 1030.03468,551.132796 C1029.6046,549.841346 1028.91648,549.496959 1027.54023,549.841346 C1024.61571,550.530119 1021.69118,547.172348 1022.3793,543.814576 C1022.63735,542.350932 1022.03524,538.390484 1020.74501,533.999552 C1018.07853,524.787204 1017.82049,522.376496 1019.19673,518.329951 C1020.1429,515.48876 1020.05689,514.4556 1018.50861,510.409054 C1016.61627,505.329349 1016.96033,504.726672 1021.43313,504.726672 C1022.55134,504.726672 1024.0136,503.865705 1024.87375,502.488157 C1027.3682,498.613806 1029.51858,496.977968 1032.18506,496.977968 C1034.24943,496.977968 1034.76552,497.322355 1034.76552,498.958192 C1034.76552,499.991353 1034.33545,501.454997 1033.90537,502.143771 C1033.13123,503.349124 1035.02357,506.448606 1036.48583,506.448606 C1037.60403,506.448606 1039.92645,500.33574 1039.92645,497.408452 C1039.92645,494.825551 1039.58239,494.30897 1037.60403,493.878487 C1036.22779,493.5341 1034.50748,492.75923 1033.73334,491.984359 C1032.52912,491.037295 1031.92702,490.951199 1030.98085,491.726069 C1029.08851,493.27581 1025.90594,491.553876 1023.23946,487.421234 L1020.74501,483.719075 L1018.68064,486.129783 C1016.10018,489.143168 1014.12182,488.540491 1014.12182,484.666139 C1014.12182,482.944205 1013.51972,481.222271 1012.65956,480.447401 C1010.16511,478.208886 1004.57411,475.798179 999.499202,474.592825 C991.671799,472.784794 985.650719,469.513119 980.403778,464.089027 C975.500899,459.181514 974.468714,457.373483 976.361054,457.373483 C977.651285,457.373483 987.88712,462.280996 992.703984,465.29438 C996.230616,467.446798 1002.93982,468.738249 1002.93982,467.188508 C1002.93982,465.208284 997.606863,460.386868 993.134061,458.320547 C990.209536,456.943 985.564704,454.446195 982.81221,452.724261 C979.973701,451.002327 976.6191,449.62478 975.414884,449.62478 C973.264498,449.62478 971.114113,448.247233 971.114113,446.869685 C971.114113,446.525299 971.802236,446.180912 972.66239,446.180912 C975.758946,446.180912 976.275038,444.372881 976.275038,434.73005 C976.275038,425.345509 976.275038,425.173315 972.576375,417.424612 C970.512005,413.119777 967.931542,408.814941 966.899357,407.867878 C964.921002,406.145943 964.921002,406.145943 963.45874,407.953974 C962.684601,408.987135 960.620231,410.450779 958.985938,411.311746 C957.351645,412.172713 954.685167,414.325131 952.964859,416.219258 C950.212365,419.146546 949.782288,419.318739 949.352211,417.941192 C948.836119,415.788775 956.663522,403.390849 959.33,402.185495 C960.362185,401.755011 962.082494,400.033077 963.200694,398.483337 C965.695141,394.781178 965.867172,384.880057 963.544756,380.058642 C962.684601,378.336707 961.480386,374.548452 960.792262,371.707261 C960.190154,368.86607 958.727892,364.647331 957.437661,362.236623 L955.20126,357.931788 L954.943213,362.150527 C954.771183,364.389041 955.115244,367.488523 955.545321,368.952167 C956.061414,370.329714 956.491491,372.654325 956.491491,374.031872 C956.491491,376.44258 956.31946,376.528677 953.911028,376.012096 C951.416581,375.495516 951.330566,375.581613 951.330566,378.508901 C951.330566,380.403028 950.900489,381.608382 950.298381,381.608382 C949.696273,381.608382 947.717918,382.038866 945.99761,382.555446 C943.503162,383.158123 942.729024,383.846897 942.729024,385.224444 C942.729024,386.257604 941.868869,390.476343 940.9227,394.608985 C939.116376,401.755011 939.116376,402.357688 940.492623,405.629363 C942.126916,409.934199 942.298946,413.722454 940.836684,413.29197 C940.234576,413.03368 938.428253,411.225649 936.96599,409.245425 C934.385528,405.887653 934.127481,405.026686 934.127481,399.344304 C934.127481,394.781178 934.729589,391.681697 936.277867,387.635152 C939.202391,380.058642 939.116376,379.025481 935.503728,379.025481 C929.82671,379.025481 931.288972,375.495516 937.396067,374.290162 C941.610823,373.515292 943.589178,371.104584 943.589178,366.713652 C943.589178,364.733428 944.191286,362.150527 944.965425,361.03127 C946.16964,359.395432 946.16964,358.706659 945.309486,357.070821 C944.707378,355.951564 944.449332,354.057436 944.793394,352.852083 C945.223471,351.216245 945.05144,350.613568 944.019255,350.613568 C942.126916,350.613568 942.470977,347.42799 944.449332,346.308733 C945.653548,345.706056 946.685733,345.619959 947.803933,346.308733 C952.104705,348.547247 957.351645,346.308733 957.351645,342.089994 C957.351645,340.88464 958.125784,338.904416 959.071954,337.699062 C961.308355,334.857871 961.308355,331.069616 959.157969,330.380842 C958.297815,330.122552 955.115244,328.314521 952.19072,326.420394 C948.06198,323.751396 947.029795,322.718235 947.803933,321.943365 C948.578072,321.168495 949.696273,321.254591 952.620797,322.287752 C956.147429,323.579203 956.491491,323.579203 958.039769,321.943365 C959.760077,320.307528 959.760077,320.307528 961.566401,322.115559 C964.146864,324.69846 965.093033,323.751396 965.093033,318.585594 C965.093033,313.075404 962.770617,309.545439 958.555861,308.770569 C956.233445,308.340086 955.287275,308.598376 954.427121,309.717633 C953.050874,311.61176 950.470412,310.922987 950.470412,308.684472 C950.470412,307.823505 951.07252,306.445958 951.760643,305.584991 C953.652982,303.00209 951.760643,299.041641 947.717918,297.233611 C945.223471,296.114353 944.621363,295.511676 945.481517,294.995096 C947.201826,293.875839 951.416581,294.564613 954.513136,296.45874 C957.437661,298.266771 958.727892,297.577997 957.781722,294.650709 C957.437661,293.617549 954.513136,291.637325 950.212365,289.571004 C943.93324,286.643716 942.556993,285.524459 938.256222,279.928173 C934.987636,275.795531 933.009281,272.351663 932.407173,269.596568 C931.202957,264.516862 929.310618,262.794928 924.149692,261.847864 C917.182443,260.556414 912.193549,255.304515 908.064809,245.2312 C907.032624,242.820492 904.968253,238.946141 903.419976,236.62153 C901.871698,234.383015 900.581467,231.972307 900.581467,231.455727 C900.581467,230.85305 897.054835,227.753569 892.754063,224.481894 C884.840645,218.541221 879.593704,212.600549 878.561519,208.554003 C878.217457,207.34865 876.755195,204.249168 875.206917,201.666267 C873.65864,199.083366 871.336223,194.089757 870.132008,190.559792 C867.895607,184.360829 867.895607,183.930346 868.755761,175.578965 C869.271853,170.843646 870.476069,165.075167 871.422239,162.750556 C872.282393,160.425945 873.056532,157.843044 873.056532,156.982077 C873.056532,156.207206 874.002702,154.571369 875.206917,153.452112 C877.013241,151.816274 877.357303,150.61092 877.357303,146.908762 C877.357303,142.690023 877.701365,141.915153 881.227997,137.782511 C883.378383,135.285707 885.786814,131.755742 886.474938,130.033808 C887.335092,128.053583 888.625323,126.676036 889.915555,126.417746 C891.033755,126.073359 893.528202,123.748748 895.506557,121.165847 C898.861158,116.688818 899.033189,116.172238 899.20522,109.887179 C899.377251,103.688216 899.463266,103.257732 902.129744,101.105315 C904.022084,99.4694771 905.484346,97.0587694 906.688562,93.2705143 C907.720747,90.2571296 910.215194,85.3496173 912.193549,82.5084261 C914.171904,79.5811381 916.752366,75.5345929 917.784551,73.3821752 C919.590875,69.8522103 919.676891,69.0773399 918.816736,64.9446981 C918.128613,61.5869265 918.128613,59.2623155 918.816736,56.1628341 C919.676891,52.4606757 919.590875,51.7719021 917.870567,49.3611943 C916.236274,47.1226799 916.064243,46.0034228 916.49432,42.129071 C917.010412,37.9103324 916.924397,37.5659456 914.515965,35.7579148 C911.41941,33.5194004 906.086454,31.1947893 903.936068,31.1947893 C902.731852,31.1947893 902.301775,31.7974663 902.301775,33.347207 C902.301775,35.0691411 901.871698,35.4996246 900.323421,35.4996246 C898.947174,35.4996246 897.484912,36.7049785 895.506557,39.3739764 C892.237971,43.8510051 889.141416,46.2617129 885.270722,47.1226799 C883.722444,47.4670668 882.174167,48.3280338 881.91612,49.1029042 C880.367843,54.0104164 879.163627,56.1628341 875.981056,59.6067023 C873.744655,61.9313133 872.196378,64.5142145 872.024347,66.0639552 C871.766301,68.3885663 871.422239,68.6468564 868.58373,68.9051465 C865.917252,69.1634366 865.057098,69.7661136 863.50882,72.3490148 C862.39062,74.0709489 860.240234,76.9982369 858.691956,78.8062677 C855.595401,82.3362326 855.25134,83.7998766 857.057663,85.3496173 C858.863987,86.8993581 859.638126,91.2902901 858.43391,92.7539341 C857.057663,94.3897715 854.993293,94.3897715 854.993293,92.8400308 C854.993293,92.2373538 854.477201,91.2041933 853.875093,90.6876131 C852.928923,89.9988395 852.326815,90.0849362 851.380646,91.2902901 C849.144245,93.7009978 848.714168,97.8336397 850.262445,101.449701 C852.756892,107.476471 852.326815,112.642273 848.628152,119.271719 C845.875659,124.265328 845.015504,125.040199 842.951134,125.040199 C841.14481,125.040199 838.908409,126.762133 832.973345,132.616709 C823.855711,141.656863 818.780801,144.842441 813.53386,144.842441 C810.265274,144.842441 809.319104,144.411958 806.652626,141.656863 C803.900133,138.643478 790.481727,131.066968 788.073295,131.066968 C787.471187,131.066968 787.04111,132.014032 787.04111,133.219386 C787.04111,134.68303 786.266971,135.71619 784.460647,136.663254 C781.622138,138.126898 781.536123,138.299091 782.740339,140.537606 C783.772524,142.51783 781.708154,143.378797 775.859105,143.637087 C770.268103,143.809281 763.472884,146.047795 763.128823,147.769729 C762.870776,148.975083 762.268669,149.147276 760.118283,148.544599 C758.570005,148.200213 754.785327,147.941923 751.602756,148.114116 C746.527846,148.286309 745.667692,148.114116 744.893553,146.564375 C744.291445,145.445118 743.087229,144.842441 741.538952,144.842441 C740.248721,144.842441 738.442397,144.067571 737.582242,143.120507 C735.775919,141.140283 731.819209,140.881993 730.270932,142.690023 C729.754839,143.378797 728.722654,145.617311 728.120546,147.597536 L727.002346,151.299694 L725.196022,147.253149 C723.303682,143.120507 722.271497,142.25954 721.239312,144.067571 C720.809235,144.670248 720.121112,144.498054 719.088927,143.550991 C717.884711,142.51783 716.59448,142.25954 713.239878,142.77612 C708.595045,143.378797 705.756536,142.603927 696.982963,138.126898 L692.510161,135.888384 L686.231036,137.352028 C682.790419,138.212995 679.00574,138.815672 677.801524,138.815672 C675.049031,138.815672 673.156691,135.97448 674.360907,133.649869 C675.135046,132.186225 675.909185,132.100129 681.156126,132.530612 C686.919159,133.047192 687.09119,132.961096 688.20939,130.808678 L689.413606,128.570164 L694.144454,131.497452 C696.724917,133.133289 699.133349,134.510836 699.391395,134.510836 C699.649441,134.510836 700.251549,133.649869 700.767642,132.616709 C701.455765,131.066968 700.853657,130.119904 696.552886,125.901166 C693.800393,123.232168 691.563992,120.735363 691.563992,120.218783 C691.563992,119.7883 694.832578,117.463689 698.875303,115.139078 C702.832012,112.72837 706.186613,110.575952 706.186613,110.231565 C706.186613,109.542792 699.907488,106.098923 698.617256,106.098923 C698.101164,106.098923 697.585071,106.873794 697.327025,107.820858 C697.068979,108.940115 695.090624,110.317662 692.1661,111.609113 C689.585637,112.814467 687.263221,114.364207 687.005174,115.052981 C686.661113,115.827851 685.714943,116.430528 684.768773,116.430528 C683.478542,116.430528 682.876434,115.569561 682.360342,112.814467 C681.586203,108.767921 679.091756,107.304277 677.543478,109.973275 C676.511293,111.867403 671.006306,111.006436 669.372013,108.595728 C667.995766,106.615504 667.221627,106.615504 662.748825,108.251341 C660.684455,109.112308 658.448054,110.834242 657.243838,112.556176 C655.867592,114.622497 654.57736,115.569561 653.115098,115.569561 C651.222759,115.569561 646.835972,119.185623 646.835972,120.82146 C646.835972,121.251944 646.147849,121.596331 645.287695,121.596331 C644.427541,121.596331 642.965278,122.199007 641.847078,122.887781 C639.1806,124.781909 636.514122,123.232168 636.514122,119.874396 C636.514122,116.688818 636.600137,116.688818 622.407593,119.7883 C615.010266,121.424137 610.537464,122.026814 609.075202,121.596331 C601.763891,119.357816 579.571912,114.622497 578.453712,114.966884 C577.765589,115.311271 577.163481,116.344431 577.163481,117.291495 C577.163481,119.185623 576.905434,119.271719 573.98091,118.496849 C571.486463,117.808075 570.798339,115.483464 572.174586,112.642273 C573.120756,110.489855 572.948725,110.145469 570.798339,108.337438 C569.422093,107.304277 567.701784,105.15186 566.927645,103.516022 C565.809445,101.191411 563.659059,99.6416705 554.971502,95.0785451 C545.337775,90.0849362 544.30559,89.6544526 542.929343,90.8598065 C541.639111,92.0651604 541.123019,92.0651604 538.542556,90.9459032 C535.704047,89.7405493 535.704047,89.6544526 537.080294,87.6742284 C538.628572,85.2635206 538.370525,85.0052305 533.897723,84.1442635 C531.14523,83.6276832 530.543122,83.111103 530.113045,80.9586853 C529.682968,78.9784611 529.252891,78.4618809 527.962659,78.8923644 C525.382197,79.4950413 523.833919,78.6340743 523.833919,76.4816566 C523.833919,73.6404653 521.511503,70.9714675 518.845025,70.6270806 C516.608624,70.3687905 516.522608,70.1965971 516.522608,65.4612783 C516.522608,61.5869265 516.092531,60.2093792 514.544254,58.4874451 C512.823945,56.6794143 512.651914,56.0767373 513.598084,54.6130933 C514.458238,53.2355461 514.458238,52.2023856 513.512069,49.3611943 C512.479883,46.0895195 512.565899,45.056359 514.8023,36.9632686 C516.264562,31.4530795 517.98487,27.3204376 519.189086,25.9428903 C520.307287,24.7375364 521.253456,22.9295056 521.253456,21.8963451 C521.253456,20.174411 520.99541,20.0883143 519.533148,20.8631846 C518.328932,21.4658616 517.382762,21.4658616 516.264562,20.7770879 C514.888315,19.9161209 514.114176,20.0883143 511.705745,21.9824418 C509.899421,23.3599891 506.372788,24.6514397 502.244048,25.5124068 C498.631401,26.2872771 491.492121,28.7840816 486.331195,31.1086926 L476.955514,35.3274312 L473.772944,41.1820072 C470.246311,47.6392602 467.923895,54.5269966 467.923895,58.5735418 C467.923895,63.0505705 466.289602,66.4944388 464.053201,66.4944388 C462.074846,66.4944388 458.462199,71.2297576 458.462199,73.7265621 C458.462199,74.4153357 456.655875,76.9121402 454.505489,79.3228479 C451.752996,82.4223293 449.516595,86.2966811 446.850117,92.9261275 C444.699731,98.0058331 442.979423,103.085539 442.979423,104.032603 C442.979423,105.065763 441.947238,106.529407 440.657006,107.476471 C435.926158,110.489855 430.077109,116.688818 430.077109,118.496849 C430.077109,121.251944 425.518292,123.146071 417.604873,123.662651 C411.84184,124.007038 410.465593,124.351425 409.175362,125.987263 L407.627084,127.88139 L406.336853,126.073359 C405.476699,124.868005 404.014436,124.179232 401.606005,124.007038 C398.165388,123.748748 398.079372,123.662651 395.49891,117.721979 C392.48837,110.748146 388.531661,106.098923 385.521121,106.098923 C383.800812,106.098923 376.231455,111.092532 359.716494,123.059975 C355.673769,126.073359 354.039476,129.689421 354.7276,134.338643 C355.157677,137.352028 354.899631,138.557382 353.523384,140.279316 C352.577214,141.48467 351.803075,143.206604 351.803075,144.153667 C351.803075,145.186828 345.781996,152.074564 337.008423,161.286912 C327.202665,171.446323 322.041739,177.559189 321.869709,178.936737 C321.439631,182.380605 317.568938,184.102539 307.247087,185.221796 C302.172177,185.824473 295.72102,186.599343 292.796496,187.115924 C289.957987,187.546407 286.431355,187.890794 284.969093,187.890794 C282.38863,187.890794 282.302615,187.718601 281.356445,182.638895 C280.840352,179.711607 280.32426,177.214803 280.238244,177.128706 C279.894183,176.870416 255.121741,179.969897 234.822102,182.811088 C231.725546,183.241572 226.908683,183.844249 224.070174,184.102539 C219.25331,184.619119 217.274956,185.738376 196.975316,198.480689 C142.613569,232.488888 144.505909,231.283534 144.505909,233.263758 C144.505909,235.502272 143.989816,235.588369 128.162979,236.965916 C122.227914,237.482497 113.540357,238.257367 108.809509,238.687851 C104.07866,239.204431 98.8317197,239.634914 97.1974267,239.807108 L94.1868869,239.979301 L93.3267327,250.310906 C92.5525939,259.953737 92.2945477,260.986897 89.4560387,265.377829 C83.7790209,274.417983 80.7684811,277.431368 77.5859105,277.431368 C74.9194324,277.431368 74.6613862,277.603562 75.1774787,279.583786 C75.5215404,280.875236 75.1774787,282.769364 74.4893553,284.146911 C73.4571703,286.127135 72.2529544,286.815909 68.5542912,287.676876 C63.5653968,288.796133 62.0171192,290.001487 60.2968107,294.306323 C59.4366565,296.45874 57.8023635,297.664094 51.781284,300.591382 C47.6525437,302.48551 43.437788,304.121347 42.405603,304.121347 C41.3734179,304.121347 39.0510015,305.326701 37.2446777,306.876442 C35.4383538,308.426182 33.8900762,309.717633 33.7180454,309.80373 C33.6320299,309.889826 34.4061687,312.386631 35.5243692,315.486112 C37.5887394,320.910205 37.5887394,321.082398 36.0404618,323.148719 C34.7502304,324.69846 34.5781996,326.076007 34.9222613,328.831102 C35.3523384,331.844486 35.1803075,332.619357 33.9760916,333.04984 C32.2557832,333.738614 25.8046266,346.997507 25.8046266,349.752601 C25.8046266,350.699665 24.3423644,353.110373 22.4500251,355.176694 C19.1814391,358.792755 19.1814391,358.792755 20.385655,362.236623 C20.9877629,364.044654 22.2779943,366.455362 23.2241639,367.402426 C26.2347037,370.588004 25.4605649,373.859679 20.6437012,378.594998 L16.3429302,382.813736 L16.3429302,389.098796 C16.3429302,395.039468 16.4289456,395.383855 18.3212849,395.383855 C19.3534699,395.383855 21.1597938,394.781178 22.2779943,394.006308 C24.1703335,392.628761 24.256349,392.628761 23.8262719,394.178501 C23.5682256,395.125565 23.0521331,397.364079 22.7940868,399.258207 C21.6758863,405.97375 21.5898709,406.145943 19.3534699,403.993526 L17.4611306,402.185495 L14.7086371,405.284976 C12.3002053,408.126168 12.0421591,408.901038 12.0421591,414.239034 C12.0421591,419.57703 11.7841128,420.437997 9.20365014,423.881865 C7.65537255,425.948186 5.504987,429.047667 4.55881736,430.855698 C2.92452434,433.696889 2.83850892,434.127373 4.04272483,435.76321 C5.16092531,437.485144 5.16092531,437.829531 3.95670941,439.723659 C2.76046789,441.53169 2.76046789,442.134367 3.87069398,445.319945 C4.55881736,447.300169 5.84904869,449.969167 6.79521833,451.260617 L8.51552676,453.585228 L5.504987,462.969769 C1.54827759,475.625985 1.63429302,476.573049 7.31131086,484.924429 C9.89177351,488.712684 12.0421591,492.242649 12.0421591,492.75923 C12.0421591,493.189713 12.9883287,495.083841 14.1925446,496.805775 C16.2569147,499.819159 16.3429302,500.59403 16.3429302,511.872698 C16.3429302,520.310176 16.6869918,524.615011 17.6331615,526.767428 C18.4933157,528.919846 18.6653465,530.38349 18.0632386,531.933231 C16.6009764,535.635389 17.117069,537.873904 19.783547,540.456805 C21.2458092,541.834352 22.3640097,543.814576 22.3640097,544.933833 C22.3640097,546.053091 23.7402564,548.377702 25.6325957,550.271829 C28.9871972,553.801794 36.8146006,570.935039 43.7818497,590.392894 C45.674189,595.644793 48.1686362,602.446433 49.2868367,605.545914 C50.4050372,608.731492 51.8672994,613.811198 52.4694073,616.91068 C53.3295616,621.043321 54.0176849,622.679159 55.1358854,622.937449 C55.9960396,623.195739 57.2002555,624.401093 57.7163481,625.606447 C58.5765023,627.500574 58.4904869,628.103251 57.2002555,629.566895 C55.3939317,631.633216 56.0820551,635.593665 58.318456,635.593665 C59.5226719,635.593665 59.3506411,635.938052 57.6303326,637.229502 C55.6519779,638.86534 55.5659625,639.037533 56.684163,642.050918 C57.6303326,644.719916 57.6303326,645.666979 56.684163,647.388913 C55.8240088,649.024751 55.7379934,650.402298 56.5121322,654.01836 C57.2002555,657.290035 57.2002555,659.700742 56.5981476,662.197547 C55.7379934,665.727512 56.2540859,673.045732 57.5443172,673.820602 C57.8883789,674.078892 62.18915,671.582088 67.1780445,668.310413 C72.0809235,664.952641 76.7257563,662.283644 77.4998951,662.283644 C78.2740339,662.283644 79.9083269,661.508773 81.1125428,660.561709 C82.3167587,659.614646 84.2951134,658.839775 85.4993293,658.839775 C86.7035452,658.839775 87.7357303,658.581485 87.7357303,658.237098 C87.8217457,657.806615 88.1658074,655.826391 88.5958845,653.673973 C89.111977,650.660588 88.9399462,649.196944 87.8217457,646.786236 C86.9615915,645.150399 86.0154219,642.481401 85.7573756,641.017757 C85.2412831,638.607049 85.4133139,638.176566 86.7895607,638.176566 C87.9077611,638.176566 89.714085,640.328984 92.5525939,645.150399 L96.5953187,652.124232 L95.3050874,659.098065 C94.1008715,665.210932 94.1008715,666.416285 95.219072,669.085283 C96.3372725,671.754281 96.3372725,672.098668 95.1330566,672.787442 C94.2729024,673.217925 93.7568098,674.681569 93.7568098,676.4896 C93.7568098,678.986404 94.0148561,679.330791 95.7351645,678.900308 C96.7673496,678.642018 105.368892,676.317407 114.830588,673.820602 Z M746.097769,548.980379 C747.904093,547.172348 747.904093,547.172348 744.377461,543.297996 C742.485122,541.145578 741.452936,539.251451 741.624967,537.96 C741.710983,536.92684 741.022859,534.946616 739.904659,533.655165 C738.872474,532.277618 738.01232,529.953007 738.01232,528.403266 C738.01232,524.873301 737.582242,524.528914 734.657718,525.648171 C729.410777,527.628396 724.421883,520.568466 723.131652,509.117604 C721.411343,494.997744 722.357513,487.851717 727.346407,476.400855 C732.077255,465.638767 727.776484,446.353105 719.346973,440.584626 C715.304248,437.829531 713.239878,438.690498 711.175508,444.114591 C710.315354,446.439202 708.767076,448.936006 707.906922,449.796973 C706.702706,450.744037 706.186613,452.293778 706.186613,454.962776 C706.100598,456.943 705.240444,463.141963 704.036228,468.566055 C702.229904,477.434016 702.143889,478.63937 703.262089,480.877884 C704.122243,482.427625 704.466305,485.354913 704.38029,489.143168 C704.208259,493.878487 704.55232,495.686518 706.100598,498.097225 C707.304814,500.07745 707.906922,502.488157 707.906922,505.415445 C707.906922,507.826153 708.250984,509.978571 708.681061,510.236861 C710.229338,511.183925 714.100032,522.893077 714.186048,526.939622 C714.358079,530.555684 714.186048,530.986167 712.293708,531.244457 C711.175508,531.416651 709.885277,531.15836 709.369184,530.64178 C707.218799,528.489363 707.218799,529.953007 709.369184,534.343939 C711.6916,539.165354 713.497924,540.370708 717.110572,539.509741 C719.77705,538.820967 724.077821,540.628998 724.679929,542.695319 C725.023991,543.642383 726.400238,544.50335 728.378592,544.847737 C730.098901,545.192124 732.335302,546.053091 733.281471,546.914058 C737.496227,550.530119 743.603322,551.56328 746.097769,548.980379 Z M960.362185,406.49033 C961.308355,405.026686 960.27617,404.682299 959.071954,406.145943 C958.38383,406.920814 958.38383,407.437394 958.899923,407.437394 C959.416015,407.437394 960.104139,407.006911 960.362185,406.49033 Z" id="Shape"></path>
                <path d="M93.4261727,178.784331 C86.5417223,175.68007 84.9927209,174.645316 83.4437196,171.885974 C80.6899395,166.884665 80.4317726,166.798435 75.3544904,168.005648 L70.793542,169.040401 L68.3839844,166.194829 C65.0278149,162.055815 64.8557036,160.589914 67.6955394,156.795818 C69.3305963,154.467622 70.3632639,151.966968 70.7074864,148.690248 L71.2238202,143.947628 L66.2325937,143.344021 C53.2381936,141.791891 51.3449697,141.360744 50.0541353,140.32599 C48.2469671,138.77386 48.3330227,137.394188 50.4844134,133.082715 C52.0334148,130.150913 52.205526,129.11616 51.4310254,126.960423 C50.3123022,124.114851 50.828636,122.73518 54.529028,119.286001 C57.3688638,116.526658 67.1792056,112.646332 71.1377646,112.646332 C74.3218229,112.646332 73.7194335,111.266661 70.2772083,110.490596 C68.9003182,110.231907 67.09315,109.197154 66.3186493,108.334859 C64.8557036,106.696499 64.769648,106.696499 62.6182572,108.334859 C59.6923658,110.663055 58.0573088,110.490596 55.0453618,107.386335 C53.6684717,105.920434 50.1401909,103.33355 47.1282439,101.695191 C44.1162968,99.9706014 41.4485723,98.0735532 41.1904054,97.3837175 C40.9322385,96.6938818 41.2764611,93.9345389 42.0509617,91.2614256 C42.911518,88.0709354 43.0836293,85.9151989 42.5672955,84.9666748 C41.1043498,82.207332 41.7927948,78.499465 44.2884081,74.8778276 C46.2676876,72.2047142 47.558522,71.3424196 50.2262465,70.8250428 C52.1194704,70.5663544 54.3569168,69.7040598 55.3035287,69.1004536 C56.5943631,68.0657 56.6804188,67.6345527 55.8198625,66.1686518 C54.0987499,63.409309 54.4429724,58.8391475 56.4222519,57.0283287 C57.6270307,55.9073457 58.8318095,55.6486573 61.0692559,56.0798046 C63.9090917,56.5971814 64.1672586,56.4247225 66.7489274,52.7168556 C68.6421513,49.8712833 70.0190414,48.8365297 71.4819871,48.8365297 C74.063656,48.8365297 74.1497116,48.319153 72.0843765,45.1286628 C71.1377646,43.5765325 67.781595,41.1621075 62.8764241,38.5752236 C58.5736426,36.3332576 53.6684717,33.6601442 52.0334148,32.7116201 C50.3983578,31.6768666 48.2469671,30.9870309 47.3003551,31.2457193 C46.4397988,31.5044076 43.3417962,30.9008014 40.588016,29.8660478 C37.7481802,28.9175238 34.2198994,28.1414586 32.5848425,28.1414586 C28.5402279,28.1414586 22,23.6575265 22,20.8981837 C22,17.1903168 23.8071682,16.67294 33.4453988,17.2765462 C38.264514,17.6214641 43.4278518,18.2250703 44.8047419,18.6562176 C46.2676876,19.1735944 51.8613035,20.8981837 57.2828082,22.450314 C77.1616586,28.400147 80.9481063,30.0385068 87.0580561,35.0398156 C101.085124,46.5945637 102.892292,48.319153 102.892292,50.6473485 C102.892292,52.6306261 107.539296,58.3217707 109.174353,58.3217707 C109.518575,58.3217707 109.776742,56.8558698 109.776742,54.9588216 C109.776742,49.6988244 111.325744,49.0089887 118.640472,50.9060368 C128.192647,53.3204618 129.91376,54.3552154 132.66754,58.5804591 C134.818931,62.0296376 135.593431,62.5470144 138.089044,62.6332438 C140.412546,62.6332438 142.133659,61.6847197 146.092218,58.2355412 C151.083445,53.8378386 154.52567,52.2857083 159.172674,52.2857083 C162.356732,52.2857083 171.65074,48.9227592 180.084192,44.6975155 L186.796531,41.248337 L189.808478,34.177521 C192.045924,29.0037532 194.369426,25.4683452 198.758263,20.5532658 C206.761437,11.7578606 218.895281,0.634259852 221.304838,0.0306536107 C223.025951,-0.400493705 234.299238,3.82474999 236.966963,5.8942571 C237.655408,6.49786334 237.999816,9.34343563 237.999816,14.3447445 C237.999816,23.1401497 238.171742,22.9676908 228.017178,27.6240818 L221.046671,30.9008014 L211.408441,44.0939093 C206.159048,51.3371842 201.253877,57.459476 200.565432,57.8043939 C199.01643,58.4080001 197.209262,57.8043939 192.906481,55.0450511 L189.464255,52.8893145 L186.882587,56.2522636 C181.547137,63.0643911 180.772637,63.4955385 175.609299,63.4955385 L170.876239,63.4955385 L170.876239,109.542072 L170.876239,155.674835 L165.110512,162.142044 C162.01251,165.763682 158.742396,168.695483 157.881839,168.695483 C157.021283,168.695483 155.30017,168.091877 153.92328,167.315812 C151.599778,165.936141 151.341611,165.936141 145.145606,169.126631 C139.293823,172.058433 138.347211,172.230891 134.130486,171.713515 C129.741648,171.196138 129.569537,171.196138 129.569537,173.265645 C129.569537,174.472857 129.053203,175.766299 128.53687,176.197447 C126.643646,177.663348 114.94008,181.802362 112.960801,181.716132 C111.928133,181.629903 110.120965,181.543673 108.916186,181.457444 C107.711407,181.371215 105.646072,181.543673 104.183126,181.888591 C102.203847,182.319739 99.7082336,181.543673 93.4261727,178.784331 Z M105.990295,178.094495 C108.916186,177.31843 110.120965,177.31843 111.067577,178.180724 C112.014189,178.95679 113.735301,178.611872 119.587084,176.456135 C126.729701,173.783022 126.901813,173.610563 126.385479,171.196138 C125.955201,169.126631 126.213368,168.695483 128.192647,168.178107 C129.483481,167.919418 132.06515,168.005648 134.04443,168.523025 C137.314544,169.385319 138.002989,169.21286 144.715328,165.849911 L151.944001,162.228274 L155.042004,163.952863 C158.140006,165.591223 158.140006,165.591223 159.516896,163.780404 C160.377453,162.83188 162.442788,160.244996 164.1639,158.175489 L167.434014,154.295163 L167.606125,107.386335 L167.864292,60.4775073 L173.457908,60.2188189 L179.051524,60.0463599 L183.956695,54.6139038 L188.77581,49.267677 L194.111259,52.1994788 C199.188542,54.9588216 199.446708,54.9588216 200.565432,53.4929207 C201.253877,52.5443966 205.556658,46.5945637 210.203662,40.2135834 L218.637114,28.5726059 L226.640287,24.7785095 L234.557405,20.8981837 L234.557405,14.430974 L234.557405,7.87753475 L228.705623,5.46310979 C225.521564,4.16966784 222.509617,3.13491428 221.907228,3.13491428 C221.390894,3.13491428 215.453056,8.481141 208.826772,15.0345802 C197.381373,26.3306399 196.606873,27.1929345 192.992536,35.2122746 L189.120033,43.5765325 L181.030804,47.6293172 C171.306518,52.5443966 162.184621,55.7348868 157.967895,55.7348868 C154.52567,55.7348868 152.288223,57.0283287 147.210941,61.8571787 C144.112939,64.7889804 143.166327,65.1338983 137.572711,65.7375045 L131.29065,66.3411107 L131.29065,63.8404563 C131.204594,59.6152126 128.106591,56.9420993 120.877919,54.9588216 C112.444467,52.6306261 112.358411,52.6306261 112.358411,55.9935752 C112.358411,57.9768528 113.391079,60.3050483 115.800636,63.4955385 C117.69386,65.9961929 119.07075,68.2381589 118.812583,68.4968473 C118.210194,69.1004536 112.272356,65.2201277 107.367185,60.994884 C104.785516,58.8391475 101.515402,55.9935752 100.052456,54.7001332 C97.5568429,52.6306261 97.3847316,52.2857083 98.7616217,51.2509547 C100.052456,50.2162011 99.3640111,49.440136 92.3935051,43.6627619 C79.6572719,33.056538 79.1409381,32.7116201 67.781595,29.0899827 C46.870077,22.3640846 41.6206836,21.0706426 33.1872319,20.7257248 L25.011947,20.2945774 L27.5936159,22.450314 C29.2286729,23.8299854 31.2079524,24.6922801 32.929065,24.6922801 C34.4780663,24.6922801 37.7481802,25.4683452 40.2437935,26.4168693 C42.7394068,27.3653934 46.0095207,28.1414586 47.4724664,28.1414586 C49.1075234,28.1414586 54.7011393,30.4696541 61.9298122,34.2637505 C73.5473222,40.2998129 73.8054891,40.4722718 75.7847686,44.8699744 C76.9034917,47.2843994 78.6246043,50.561119 79.6572719,52.0270199 L81.5504958,54.8725922 L77.3337699,53.5791502 C71.3959314,51.7683315 70.8795977,51.9407904 68.2979288,56.2522636 C65.8883711,60.1325894 65.8883711,60.1325894 62.1019234,59.6152126 C58.8318095,59.0978358 58.3154757,59.2702948 57.9712532,60.7361956 C57.7130863,61.7709492 58.0573088,63.3230795 58.7457539,64.3578331 C60.811089,67.2896348 58.7457539,72.9807794 55.6477512,72.9807794 C48.5051339,72.9807794 43.9441856,78.0683177 45.9234651,83.6732328 C46.7840214,86.0014283 46.6979657,87.2086408 45.6652982,90.226672 C44.9768531,92.2099497 44.3744637,94.3656863 44.3744637,94.9692925 C44.3744637,95.5728987 46.4397988,97.3837175 48.9354121,98.8496183 C51.3449697,100.401749 54.7011393,102.816174 56.164085,104.282075 L59.0039208,106.955188 L61.499534,104.454533 L64.0812029,102.040108 L67.1792056,104.799451 C69.3305963,106.61027 71.1377646,107.472565 73.117044,107.472565 C75.9568798,107.472565 76.0429355,107.472565 76.6453249,112.387644 C76.9895474,115.060757 77.4198255,117.8201 77.764048,118.596165 C78.1082706,119.544689 77.5058812,119.372231 75.1823792,117.992559 C73.5473222,116.957806 71.4819871,116.095511 70.6214308,116.095511 C67.2652612,116.095511 59.9505327,119.027313 56.85253,121.614197 C53.9266386,124.114851 53.7545274,124.459769 54.7871949,126.615505 C55.6477512,128.598783 55.5616956,129.633537 54.0126942,133.341404 C51.9473591,138.342712 51.4310254,137.911565 61.1553115,139.377466 C64.9417592,139.894843 68.7282069,140.498449 69.5887632,140.670908 C70.793542,140.929596 71.0517089,140.239761 71.0517089,136.790582 C71.0517089,132.479109 71.9122652,131.616814 76.8174361,131.616814 C79.2269938,131.616814 79.399105,132.047962 80.1736057,137.480418 L80.6899395,141.87812 L77.5919368,143.344021 C75.8708242,144.206316 74.4939341,145.068611 74.4939341,145.327299 C74.4078785,149.811231 72.428599,156.4509 70.5353752,158.434177 C68.3839844,160.676143 68.3839844,160.848602 69.7608745,163.004339 C71.3959314,165.418764 72.6007103,165.677452 76.9034917,164.47024 C80.7759951,163.349257 83.7018865,164.728928 85.7672216,168.954172 C87.2301673,171.713515 88.6070574,172.834498 94.5448958,175.593841 C98.4173992,177.404659 101.687513,178.95679 101.859624,178.95679 C102.031736,179.043019 103.838904,178.611872 105.990295,178.094495 Z M76.6453249,138.084024 C76.6453249,136.704353 76.1289911,135.49714 75.6126573,135.324681 C74.8381566,135.065993 74.4939341,135.928287 74.4939341,138.084024 C74.4939341,140.239761 74.8381566,141.102055 75.6126573,140.929596 C76.1289911,140.670908 76.6453249,139.463695 76.6453249,138.084024 Z" id="Shape"></path>
                <path d="M272.9375,92.8017494 C268.102679,90.7011675 267,89.2727718 267,84.9035614 C267,82.8029795 267.424107,80.6183743 268.017857,80.0302113 C269.459821,78.6018156 281.758929,78.6858389 282.946429,80.1142346 C283.370536,80.6183743 284.303571,82.8029795 284.897321,84.8195381 L286,88.5165623 L282.861607,91.2893304 C279.46875,94.3981917 277.433036,94.7342848 272.9375,92.8017494 Z M280.910714,89.1887485 C282.098214,87.8443761 282.267857,87.0041433 281.674107,85.1556312 C280.910714,82.971026 280.486607,82.8029795 275.651786,82.5509096 L270.392857,82.2988398 L270.392857,85.1556312 C270.392857,87.508283 270.816964,88.1804692 273.191964,89.3567951 C276.839286,91.1212839 279.129464,91.1212839 280.910714,89.1887485 Z" id="Shape"></path>
                <path d="M308.067265,79.1304348 L305,76.2608696 L305.93722,70.6086957 C307.215247,63.3913043 308.834081,62 315.565022,62 C321.869955,62 324,63.7391304 324,69.1304348 C324,72.2608696 323.488789,73.2173913 319.484305,77.3913043 C316.757848,80.0869565 314.116592,82 313.008969,82 C311.986547,82 309.7713,80.6956522 308.067265,79.1304348 Z M317.013453,75.1304348 C319.995516,72.3478261 320.591928,71.2173913 320.591928,68.6086957 L320.591928,65.4782609 L315.565022,65.4782609 L310.452915,65.4782609 L309.430493,70.3478261 C308.408072,75.1304348 308.408072,75.3043478 310.282511,76.8695652 C311.390135,77.826087 312.497758,78.5217391 312.838565,78.5217391 C313.09417,78.4347826 314.96861,76.9565217 317.013453,75.1304348 Z" id="Shape"></path>
                <path d="M329.645664,66.3357849 C328.43307,65.3754161 328,64.0658223 328,61.1847159 C328,57.6924658 328.259842,57.1686282 330.42519,56.2082595 C331.98424,55.5098094 332.677151,54.6367469 332.503924,53.5890718 C332.330696,52.7160093 332.763765,51.0571905 333.543291,49.9222092 C334.322816,48.7872279 334.929113,46.9537966 334.929113,45.9934278 C334.929113,44.0726902 337.9606,42.4138714 340.125948,43.1996277 C342.637752,44.1599964 346.36215,47.3030216 347.055061,49.0491467 C347.661359,50.7079655 347.834586,50.6206592 348.873953,48.3506966 C350.34639,45.1203652 352.77158,44.683834 357.448731,46.6918778 C362.73218,48.9618404 365.590439,52.279478 364.897528,55.0732782 C364.118002,58.128997 358.921168,61.1847159 355.543225,60.4862659 C353.291263,60.0497346 352.165282,60.3989596 349.653479,62.4070035 C345.669239,65.7246411 332.41731,68.2565225 329.645664,66.3357849 Z M339.606265,62.581616 C342.37791,62.1450847 344.889713,61.6212472 345.062941,61.4466347 C345.582625,60.9227971 343.417277,56.4701782 342.637752,56.4701782 C342.291296,56.4701782 341.858226,57.081322 341.511771,57.779772 C341.165315,58.7401408 339.692879,59.0893658 336.228322,59.0893658 C331.724398,59.0893658 331.464557,59.1766721 331.464557,61.2720222 C331.464557,63.8039035 331.98424,63.8912098 339.606265,62.581616 Z M355.023541,56.732097 C358.228256,57.3432407 362.558952,54.8986656 361.432971,53.0652343 C360.74006,52.0175593 354.590472,48.6126154 353.204649,48.6126154 C352.77158,48.6126154 351.992054,49.8349029 351.472371,51.231803 C350.866074,52.9779281 349.999934,53.8509906 348.873953,53.8509906 C347.401517,53.8509906 347.055061,54.3748281 347.055061,56.9067095 L347.055061,60.0497346 L349.566865,58.128997 C351.472371,56.732097 352.858194,56.382872 355.023541,56.732097 Z M341.338543,52.8033156 L343.590505,49.9222092 L341.771612,48.4380029 C339.259809,46.3426528 339.086581,46.429959 337.354303,50.0968217 C336.228322,52.4540905 336.141708,53.5890718 336.834619,54.4621344 C338.220442,56.1209532 338.913353,55.8590344 341.338543,52.8033156 Z" id="Shape"></path>
                <path d="M364.013371,42.0688517 C363.420196,41.4719991 362.996499,40.1077646 362.996499,38.9993241 C362.996499,37.8908836 361.979626,35.3329439 360.793275,33.2013276 C358.335833,28.9380948 358.335833,27.5738603 361.216972,15.6368087 C363.081238,7.96298973 363.335456,7.4514018 366.047116,6.34296129 C371.470436,4.29660957 372.063611,4.38187423 375.453186,8.04825439 C378.503804,11.3735759 384.011863,13.9315156 391.214709,15.3810147 C395.875375,16.3189259 396.383811,24.5895974 391.892624,26.1243612 C390.621534,26.6359491 389.011486,28.0001836 388.333571,29.3644181 C386.215086,33.5423862 379.520676,38.8287948 373.504181,41.0456758 C367.148728,43.3478215 365.45394,43.5183508 364.013371,42.0688517 Z M371.894133,37.9761482 C377.825889,35.9297965 383.757645,31.2402405 385.70665,27.0622724 C386.638783,25.1011854 387.909874,23.8222155 389.265704,23.4811569 C390.791012,23.1400983 391.384188,22.3727164 391.384188,21.0084819 C391.384188,19.3031888 390.706273,18.7916009 387.147219,17.8536897 C380.198591,16.0631319 375.198968,13.590457 373.334702,10.861988 C371.894133,8.90090093 371.046739,8.47457766 369.436691,8.73037163 C366.470813,9.32722421 365.962377,10.1798708 363.928632,18.5358069 C361.725408,27.8296543 361.725408,28.2559776 364.267589,32.4339457 C365.369201,34.3097681 366.386074,36.6971784 366.386074,37.8056189 C366.386074,40.1077646 365.877637,40.0224999 371.894133,37.9761482 Z" id="Shape"></path>
            </g>
        </g>
    </g>
</svg>